<?xml version="1.0" encoding="UTF-8" standalone="no"?>
<!-- Created with Inkscape (http://www.inkscape.org/) -->

<svg
   version="1.1"
   id="svg1"
   width="956.68219"
   height="956.68219"
   viewBox="0 0 956.6822 956.68218"
   sodipodi:docname="football.svg"
   inkscape:version="1.4.2 (ebf0e940d0, 2025-05-08)"
   xmlns:inkscape="http://www.inkscape.org/namespaces/inkscape"
   xmlns:sodipodi="http://sodipodi.sourceforge.net/DTD/sodipodi-0.dtd"
   xmlns="http://www.w3.org/2000/svg"
   xmlns:svg="http://www.w3.org/2000/svg">
  <defs
     id="defs1" />
  <sodipodi:namedview
     id="namedview1"
     pagecolor="#ffffff"
     bordercolor="#999999"
     borderopacity="1"
     inkscape:showpageshadow="0"
     inkscape:pageopacity="0"
     inkscape:pagecheckerboard="0"
     inkscape:deskcolor="#d1d1d1"
     inkscape:zoom="0.76064569"
     inkscape:cx="213.63429"
     inkscape:cy="445.67399"
     inkscape:window-width="1340"
     inkscape:window-height="1141"
     inkscape:window-x="0"
     inkscape:window-y="28"
     inkscape:window-maximized="0"
     inkscape:current-layer="g1">
    <inkscape:page
       x="3.1799381e-09"
       y="1.4595884e-06"
       inkscape:label="1"
       id="page1"
       width="956.68219"
       height="956.68219"
       margin="0"
       bleed="0" />
  </sodipodi:namedview>
  <g
     id="g1"
     inkscape:groupmode="layer"
     inkscape:label="1"
     transform="translate(-177.45091,-188.38634)">
    <circle
       style="fill:none;fill-opacity:1;stroke:#cccccc;stroke-width:25.731;stroke-dasharray:none;stroke-opacity:1"
       id="path38"
       cx="655.79199"
       cy="666.72742"
       r="465.47559" />
    <path
       id="path14"
       d="m 426.59158,358.21734 c 3.20115,-1.97334 6.40232,-3.94679 9.56496,-5.9796 5.43065,-3.48172 11.73101,-4.76205 19.26274,-3.90977 6.80807,0.76052 13.66133,1.31208 20.32269,1.84918 2.85577,0.22655 5.71421,0.45339 8.45796,0.69053 42.77345,6.27104 83.1856,21.77918 120.12094,46.05124 2.32572,1.53724 2.66213,2.15202 2.56952,4.69849 -0.24096,6.60745 -0.49115,13.21346 -0.74195,19.83293 l -0.009,0.24114 c -1.22859,32.44066 -2.50025,65.99328 -2.61975,99.05332 -0.0559,15.41892 1.56527,30.93347 3.13526,45.92866 l 0.0282,0.26005 c 0.54734,5.25337 1.09469,10.50674 1.57078,15.74975 0.20052,2.19841 0.15123,2.23167 -1.10361,3.05978 -60.12138,39.76529 -112.03343,81.50531 -158.70399,127.61817 -0.27632,0.26966 -0.46093,0.41805 -0.57067,0.49638 -0.24486,-0.0487 -0.70969,-0.19714 -1.56048,-0.56363 -31.73519,-13.47859 -69.22979,-29.37064 -106.72346,-44.89878 -9.058,-3.75542 -18.82402,-7.20945 -30.73241,-10.86717 -1.98324,-0.61165 -2.51461,-1.02569 -3.16829,-3.72105 -6.31673,-25.97882 -9.13337,-52.56721 -8.37216,-79.03972 0.75078,-26.15057 2.4107,-52.76196 4.01953,-78.55882 l 0.0415,-0.66758 c 0.50444,-8.10513 1.01079,-16.22333 1.48762,-24.33247 0.0746,-1.28261 0.70398,-2.64626 1.12136,-3.07063 7.18533,-7.17433 14.40349,-14.54598 21.38347,-21.66942 l 0.19093,-0.20123 c 24.61735,-25.1471 50.07204,-51.14258 78.36504,-72.95285 7.08637,-5.46418 14.99552,-10.35059 22.66334,-15.09696 z M 809.35297,265.5122 c -0.27569,3.31482 -0.52955,6.64625 -0.77958,9.95136 -1.52412,20.06948 -2.96233,39.01968 -9.69999,57.38822 -1.00096,2.72435 -1.93661,3.57188 -4.54511,4.08196 l -4.60035,0.92113 c -30.85701,6.11834 -62.76141,12.43469 -94.09107,19.1444 -30.83634,6.6064 -56.62276,15.90036 -78.83234,28.42252 -0.60764,0.34286 -0.87525,0.35782 -0.8581,0.36031 l 9.9e-4,1.4e-4 -0.29034,1.83058 0.26659,-1.83403 c -0.10291,-0.015 -0.53787,-0.1186 -1.77127,-0.95806 -38.12082,-25.88617 -80.834,-42.41553 -126.95465,-49.11955 -3.31185,-0.48141 -6.69203,-0.91919 -10.04831,-1.29893 -5.76461,-0.66281 -11.45891,-1.08632 -17.4856,-1.53117 l -2.65788,-0.19768 c 4.76326,-25.14978 12.54446,-53.84894 32.81381,-78.25367 l 21.74606,-22.70315 -25.56276,13.55226 c 7.52285,-2.98895 15.24926,-6.01571 22.92075,-8.64615 68.58358,-23.48542 139.49371,-30.15459 210.76999,-19.79398 8.56993,1.24572 17.27892,2.7676 25.888,4.50405 18.73593,3.77436 36.38618,11.36564 52.45932,22.56751 8.92342,6.2014 12.09449,12.26733 11.31151,21.61188 z m 242.91013,179.89846 6.5646,29.35056 c 6.2029,26.74369 6.6431,49.33527 1.3415,70.7824 -28.4211,-27.00917 -62.96653,-35.911 -96.14914,-41.46194 -9.98011,-1.66624 -17.71399,-2.89824 -25.07925,-3.96884 -3.53221,-0.51344 -7.06831,-1.00016 -10.58835,-1.45827 l -0.19792,-0.0288 c -2.23782,-0.32528 -3.191,-1.01628 -4.43318,-3.20432 l -6.50811,-11.50927 c -10.97784,-19.42111 -22.32855,-39.50272 -33.97872,-59.03499 -18.6014,-31.20024 -41.74275,-59.35516 -68.78281,-83.65752 -1.55707,-1.41206 -1.55707,-1.41206 -0.77975,-3.44135 8.40162,-22.02047 10.01397,-45.01428 10.9473,-66.69217 0.14063,-3.29403 0.21998,-6.58353 0.30134,-10.00743 l 0.007,-0.24153 c 5.72753,-0.67645 11.54763,-0.57146 17.73725,0.32826 4.93348,0.71712 9.9938,1.92419 15.46932,3.67675 33.56443,10.79369 61.56089,31.55682 82.20235,48.43496 51.38077,42.02805 92.34087,93.81864 121.74167,153.92627 0.1604,0.33324 0.3182,0.666 0.4759,0.99885 z m -79.3524,509.62652 c 4.47173,-11.53001 7.95107,-23.52762 11.34083,-35.2149 1.70333,-5.86936 3.46639,-11.9456 5.32326,-17.83307 0.69154,-2.18996 1.46513,-3.15539 1.68066,-3.31269 43.35175,-32.29991 77.53785,-76.37405 104.31205,-134.55444 -12.3953,54.61164 -34.5167,105.70761 -65.8554,152.06844 -24.7532,36.6202 -54.46973,69.1236 -88.45551,96.77578 14.39022,-20.81314 24.32671,-39.05351 31.65411,-57.92912 z M 749.71124,1096.6569 c 6.29432,-2.8981 13.45604,-4.2553 21.0479,-5.6983 3.52286,-0.6736 7.16435,-1.3569 10.73842,-2.2251 28.35695,-6.8455 57.67301,-16.1923 89.01729,-28.3972 -50.34747,27.241 -103.98242,44.2763 -160.01482,50.8041 13.55481,-3.8502 26.52513,-8.6477 39.21121,-14.4835 z M 572.1532,1107.266 c -30.83197,-4.4816 -59.74988,-14.8829 -83.97057,-24.4801 -0.96696,-0.3831 -1.92743,-0.7922 -2.96384,-1.2258 -1.93883,-0.8342 -3.94567,-1.6918 -6.11335,-2.3976 -21.24365,-6.9144 -39.21783,-20.2116 -56.56534,-41.852 -18.46809,-23.0429 -34.69796,-44.0763 -46.30093,-68.02103 -0.83526,-1.72476 -1.64376,-3.51299 -2.49367,-5.41502 0.8244,-0.23048 1.635,-0.44949 2.44692,-0.66831 37.99773,-10.06549 73.26362,-27.61513 105.71214,-45.0623 2.38016,-1.28431 4.00388,-1.74891 5.43155,-1.54138 1.16772,0.16974 2.60538,0.8368 4.39227,2.03968 33.58965,22.58667 73.00434,40.5633 124.04332,56.55137 12.8938,4.04345 26.0777,7.6575 38.83458,11.16905 8.94333,2.45871 18.18967,5.00188 27.19119,7.6442 0.38506,0.15025 1.66587,1.26614 2.3971,2.73324 4.11938,8.2922 8.2179,16.7834 12.21266,25.0709 6.42864,13.3165 13.07564,27.096 20.05523,40.5061 3.74119,7.1862 8.34753,13.8245 13.22008,20.8653 0.97352,1.3946 1.95904,2.8178 2.95525,4.2695 -2.44379,0.7766 -4.86838,1.5694 -7.25088,2.3414 l -0.32062,0.1016 c -10.59904,3.4445 -20.60891,6.6917 -30.93181,9.0985 -39.45485,9.18 -74.41777,12.4379 -106.88627,9.9549 -4.94845,-0.3824 -10.02826,-0.9457 -15.09501,-1.6822 z M 235.81987,793.206 c 5.27694,2.74765 8.15409,5.64498 10.61494,10.6645 20.81417,42.54317 47.81723,80.17889 81.9577,123.59474 2.85348,3.63493 5.77195,7.21195 8.69174,10.78915 4.16359,5.10535 8.46908,10.393 12.46871,15.6901 3.85184,5.12739 6.72136,9.82906 8.76946,14.39786 9.67226,21.56223 22.90447,42.63145 41.2514,65.56245 -88.49658,-60.89666 -148.81471,-145.14272 -179.41788,-250.62861 4.96428,3.56451 10.1167,7.04856 15.66393,9.92981 z M 291.2587,662.98645 c -14.44479,25.33222 -24.44762,52.77882 -34.12939,79.34238 -1.71979,4.72172 -3.44216,9.44307 -5.18966,14.16076 -2.30034,6.21373 -4.55254,12.44793 -6.95319,19.0917 l -1.27941,3.54617 c -15.1413,-7.95408 -29.76483,-17.74613 -33.09838,-38.38699 -16.43663,-101.8098 -0.63532,-199.51295 46.96177,-290.41161 l 3.34002,2.31786 c 8.87186,6.16703 17.26012,11.98071 25.55306,17.99619 0.13197,0.31566 0.28088,0.87621 0.26447,1.18375 -0.57783,11.40883 -1.27526,23.02936 -1.95076,34.27586 l -0.0155,0.28068 c -1.25032,20.83685 -2.5429,42.38159 -3.15969,63.63389 -0.94834,32.73745 2.2199,62.42191 9.69181,90.75135 0.23747,0.89678 0.075,1.97795 -0.0354,2.21797 z m 514.19883,-4.21136 c 22.2557,53.22162 33.27277,95.64762 35.72321,137.55594 0.68337,11.68651 0.50531,23.71937 0.33175,35.443 -0.0472,3.25371 -0.096,6.57456 -0.12776,9.89789 l -2.74786,-0.41286 0.7981,7.18957 c 1.09487,9.81962 -3.68695,16.07685 -12.31543,23.5669 -34.35504,29.82161 -71.59197,57.29762 -107.6067,83.87341 -5.68978,4.19853 -11.38089,8.39688 -17.06468,12.60977 -9.51724,7.05098 -16.70731,9.27989 -25.64669,7.98047 -1.82878,-0.26583 -3.7888,-0.68547 -5.82404,-1.26425 -54.76637,-15.49242 -112.63283,-33.32175 -165.17631,-65.71013 -8.07922,-4.9739 -11.77237,-10.29381 -13.63031,-19.59109 -8.71463,-43.69466 -18.20923,-87.97428 -27.39254,-130.78045 -2.22485,-10.38807 -4.45162,-20.76294 -6.66855,-31.14986 -0.42097,-1.96095 -0.26276,-2.11317 0.76247,-3.1228 46.84774,-45.85803 100.07497,-88.49832 158.20436,-126.72071 0.4036,-0.2647 1.94121,-0.67448 3.31609,-0.47463 0.14119,0.0205 0.27786,0.0535 0.40383,0.086 59.32384,18.91687 120.56861,38.65198 182.03413,58.64826 0.86498,0.28741 2.28831,1.57222 2.62689,2.37588 z m 268.40467,114.37202 c -24.6458,47.61662 -53.8581,83.87157 -89.31057,110.85245 -2.5683,1.95758 -4.21241,2.43269 -7.03211,2.02283 -0.60036,-0.0873 -1.22795,-0.21892 -1.88996,-0.38252 -25.98089,-6.22871 -52.48353,-12.07516 -78.11303,-17.72734 -7.14076,-1.5769 -14.28152,-3.15381 -21.42169,-4.74411 -6.03864,-1.33586 -12.09347,-2.60671 -18.02679,-3.83295 l -3.19204,-0.6661 c 0.24611,-2.86102 0.50421,-5.69335 0.76423,-8.53887 0.8848,-9.72049 1.71999,-18.89577 1.97579,-28.33042 1.02632,-37.9268 -5.5069,-77.74742 -19.97712,-121.71275 -4.16092,-12.6501 -9.00329,-25.23757 -13.69075,-37.39832 -1.06217,-2.76828 -2.12627,-5.5233 -3.18053,-8.29043 -0.1201,-0.31384 -0.2709,-0.71308 -0.36582,-0.99628 0.0441,-0.034 0.0938,-0.0803 0.14837,-0.14012 35.47066,-35.17013 68.21679,-77.958 103.05762,-134.65592 2.7932,-4.55225 4.32604,-4.55852 7.01511,-4.16764 0.48426,0.0704 0.98968,0.17114 1.52227,0.28898 8.81063,1.98129 17.78448,3.75732 26.46602,5.47732 14.92538,2.95106 30.36023,6.00305 45.0973,10.16622 10.4923,2.9533 20.6911,9.08413 30.6228,15.04143 1.4558,0.88522 2.9096,1.7568 4.36,2.61435 18.3568,10.8871 25.3267,31.16731 31.4736,49.06425 13.2897,38.6739 16.5784,79.32978 17.9571,110.4249 0.027,0.55626 0.034,1.12309 0.039,1.77063 0.019,1.65996 0.039,3.37411 0.3738,5.24169 3.7318,20.79306 -4.4372,38.85916 -14.6727,58.61901 z M 280.82284,942.418 c 74.43044,100.0673 183.30029,165.0975 306.55348,183.1212 l 0.40639,0.059 c 123.77653,17.992 246.96836,-13.0501 346.88728,-87.4239 C 1034.5974,963.78829 1099.5902,854.74995 1117.6788,731.13304 1154.9376,476.52466 978.5202,238.95688 724.40878,201.58845 l -0.80356,-0.11681 C 599.7812,183.47277 476.54318,214.50815 376.59127,288.87712 276.62616,363.24428 211.58413,472.31585 193.45007,595.96659 175.36151,719.31412 206.39251,842.35074 280.82284,942.418"
       style="fill:#cccccc;fill-opacity:1;fill-rule:nonzero;stroke:none;stroke-width:0.133333"
       sodipodi:nodetypes="ccccccccccccccccccccccsccccccccccccccsccccscccccccsccccccccscsccccccccscccccccccccccccccccsscccccccscccccccccccccsccccccccccccccccccccccccccscccccscscccccccsccccccscccccccccccccscccccccccccccscccsccc" />
    <path
       style="font-variation-settings:normal;opacity:1;vector-effect:none;fill:none;fill-opacity:1;stroke:#cccccc;stroke-width:30;stroke-linecap:butt;stroke-linejoin:miter;stroke-miterlimit:4;stroke-dasharray:none;stroke-dashoffset:0;stroke-opacity:1;-inkscape-stroke:none;stop-color:#000000;stop-opacity:1"
       d="m 411.52041,335.0302 c 0,0 66.22249,-7.88363 137.17515,17.34399 70.95267,25.22761 119.83118,72.52939 119.83118,72.52939"
       id="path37" />
    <path
       style="fill:none;fill-opacity:1;stroke:#cccccc;stroke-width:30;stroke-dasharray:none;stroke-opacity:1"
       d="m 295.25365,450.58832 c 0,0 -16.09854,67.32118 -4.39051,141.95987 11.70803,74.6387 23.41606,122.93433 23.41606,122.93433"
       id="path41" />
    <path
       style="fill:none;fill-opacity:1;stroke:#cccccc;stroke-width:30;stroke-dasharray:none;stroke-opacity:1"
       d="m 429.896,735.97157 c 0,0 67.32118,-70.24818 100.98177,-90.73724 33.66059,-20.48905 125.86133,-81.95621 125.86133,-81.95621"
       id="path42" />
    <path
       style="fill:none;fill-opacity:1;stroke:#cccccc;stroke-width:30;stroke-dasharray:none;stroke-opacity:1"
       d="m 473.80112,896.95699 c 0,0 52.68614,43.90512 99.51826,58.54016 46.83212,14.63503 162.44893,32.19708 162.44893,32.19708"
       id="path43" />
    <path
       style="fill:none;fill-opacity:1;stroke:#cccccc;stroke-width:30;stroke-dasharray:none;stroke-opacity:1"
       d="m 842.60409,898.4205 c 0,0 17.56204,-86.34673 4.39051,-137.56936 C 833.82306,709.6285 800.16247,634.98981 800.16247,634.98981"
       id="path44" />
    <path
       style="fill:none;fill-opacity:1;stroke:#cccccc;stroke-width:30;stroke-dasharray:none;stroke-opacity:1"
       d="m 902.60774,504.73796 c 0,0 56.3009,-5.74189 109.76286,17.56205 57.0766,24.87957 99.5182,111.22629 99.5182,111.22629"
       id="path45"
       sodipodi:nodetypes="csc" />
    <path
       style="fill:none;fill-opacity:1;stroke:#cccccc;stroke-width:30;stroke-dasharray:none;stroke-opacity:1"
       d="m 797.23547,381.80364 c 0,0 20.48905,-57.07665 20.48905,-95.12775 0,-38.0511 -7.31752,-58.54015 -7.31752,-58.54015"
       id="path46" />
    <path
       style="fill:none;fill-opacity:1;stroke:#cccccc;stroke-width:30;stroke-dasharray:none;stroke-opacity:1"
       d="m 356.72081,933.54459 c 0,0 29.27008,84.88321 57.07665,117.08031 27.80657,32.1971 26.34307,16.0985 26.34307,16.0985"
       id="path47" />
    <path
       style="fill:none;fill-opacity:1;stroke:#cccccc;stroke-width:30;stroke-linecap:round;stroke-dasharray:none;stroke-opacity:1"
       d="m 273.30109,798.90223 c -1.4635,7.31752 13.17154,4.39052 13.17154,4.39052 0,0 -29.27008,-2.92701 -54.14965,-13.17154 -24.87956,-10.24453 -32.53179,-41.93987 -32.53179,-41.93987"
       id="path48"
       sodipodi:nodetypes="ccsc" />
    <path
       style="fill:none;fill-opacity:1;stroke:#cccccc;stroke-width:30;stroke-dasharray:none;stroke-opacity:1"
       d="m 947.97636,907.20152 c 0,0 65.85764,-24.87957 98.05474,-70.24819 32.1971,-45.36861 58.5402,-124.39782 58.5402,-124.39782"
       id="path49" />
    <path
       style="fill:none;fill-opacity:1;stroke:#cccccc;stroke-width:30;stroke-dasharray:none;stroke-opacity:1"
       d="m 792.84495,1056.4789 c 0,0 -55.61314,39.5146 -90.73723,51.2226 -35.1241,11.7081 -175.62046,5.8541 -175.62046,5.8541"
       id="path50" />
  </g>
</svg>
